<svg width="20" height="20" viewBox="0 0 20 20" fill="none" xmlns="http://www.w3.org/2000/svg">
<mask id="mask0_432_178" style="mask-type:alpha" maskUnits="userSpaceOnUse" x="1" y="1" width="18" height="18">
<path fill-rule="evenodd" clip-rule="evenodd" d="M10 5.83329C7.66669 5.83329 5.83335 7.66663 5.83335 9.99996C5.83335 12.3333 7.66669 14.1666 10 14.1666C12.3334 14.1666 14.1667 12.3333 14.1667 9.99996C14.1667 7.66663 12.3334 5.83329 10 5.83329ZM10 1.66663C5.41669 1.66663 1.66669 5.41663 1.66669 9.99996C1.66669 14.5833 5.41669 18.3333 10 18.3333C14.5834 18.3333 18.3334 14.5833 18.3334 9.99996C18.3334 5.41663 14.5834 1.66663 10 1.66663ZM10 16.6666C6.33335 16.6666 3.33335 13.6666 3.33335 9.99996C3.33335 6.33329 6.33335 3.33329 10 3.33329C13.6667 3.33329 16.6667 6.33329 16.6667 9.99996C16.6667 13.6666 13.6667 16.6666 10 16.6666Z" fill="#009688"/>
</mask>
<g mask="url(#mask0_432_178)">
<rect x="2" y="2" width="20" height="20" fill="#00BCD4"/>
</g>
</svg>
