<svg width="311" height="158" viewBox="0 0 311 158" fill="none" xmlns="http://www.w3.org/2000/svg">
<path d="M0 36.8429L6.34694 82.6563L12.6939 109.087L19.0408 35.7216L25.3878 80.2535L31.7347 101.078L38.0816 88.2628L44.4286 40.5272L50.7755 90.6656L57.1225 123.504L63.4694 127.509L69.8163 97.5536L76.1633 73.846L82.5102 146.891L88.8572 32.3577L95.2041 73.3655L101.551 106.844L107.898 7.52877L114.245 149.294L120.592 14.577L126.939 76.0886L133.286 117.417L139.633 116.616L145.98 43.0902L152.327 6.08709L158.674 29.6345L165.02 155.701L171.367 36.5225L177.714 37.1633L184.061 56.8662L190.408 61.0311L196.755 86.8211L203.102 25.79L209.449 80.2535L215.796 152.658L222.143 104.602L228.49 120.14L234.837 141.445L241.184 106.364L247.531 105.563L253.878 18.4215L260.225 0L266.571 99.7963L272.918 79.1322L279.265 78.972L285.612 83.7776L291.959 127.829L298.306 71.6034L304.653 47.7356L311 78.972V157.784H304.653H298.306H291.959H285.612H279.265H272.918H266.571H260.225H253.878H247.531H241.184H234.837H228.49H222.143H215.796H209.449H203.102H196.755H190.408H184.061H177.714H171.367H165.02H158.674H152.327H145.98H139.633H133.286H126.939H120.592H114.245H107.898H101.551H95.2041H88.8572H82.5102H76.1633H69.8163H63.4694H57.1225H50.7755H44.4286H38.0816H31.7347H25.3878H19.0408H12.6939H6.34694H0V36.8429Z" fill="#1FBFED" fill-opacity="0.6"/>
</svg>
