<svg width="24" height="24" viewBox="0 0 24 24" fill="none" xmlns="http://www.w3.org/2000/svg">
<path d="M12 0C5.37097 0 0 5.20312 0 11.625C0 18.0469 5.37097 23.25 12 23.25C18.629 23.25 24 18.0469 24 11.625C24 5.20312 18.629 0 12 0ZM12 4.5C14.3516 4.5 16.2581 6.34688 16.2581 8.625C16.2581 10.9031 14.3516 12.75 12 12.75C9.64839 12.75 7.74194 10.9031 7.74194 8.625C7.74194 6.34688 9.64839 4.5 12 4.5ZM12 20.625C9.15968 20.625 6.61452 19.3781 4.91129 17.4281C5.82097 15.7687 7.60161 14.625 9.67742 14.625C9.79355 14.625 9.90968 14.6438 10.021 14.6766C10.65 14.8734 11.3081 15 12 15C12.6919 15 13.3548 14.8734 13.979 14.6766C14.0903 14.6438 14.2065 14.625 14.3226 14.625C16.3984 14.625 18.179 15.7687 19.0887 17.4281C17.3855 19.3781 14.8403 20.625 12 20.625Z" fill="#F4F9FA"/>
</svg>
