<svg width="296" height="107" viewBox="0 0 296 107" fill="none" xmlns="http://www.w3.org/2000/svg">
<path d="M0 0H21.6966V106.103H0V0Z" fill="#2851E3"/>
<path d="M27.4304 60.6304H49.127V106.103H27.4304V60.6304Z" fill="#2851E3"/>
<path d="M54.8605 65.6041H76.5571V106.103H54.8605V65.6041Z" fill="#2851E3"/>
<path d="M82.2909 62.2884H103.988V106.103H82.2909V62.2884Z" fill="#2851E3"/>
<path d="M109.721 100.538H131.418V106.103H109.721V100.538Z" fill="#2851E3"/>
<path d="M137.151 54.5911H158.848V106.103H137.151V54.5911Z" fill="#2851E3"/>
<path d="M164.582 103.024H186.279V106.103H164.582V103.024Z" fill="#2851E3"/>
<path d="M192.012 80.288H213.709V106.103H192.012V80.288Z" fill="#2851E3"/>
<path d="M219.443 58.7358H241.139V106.103H219.443V58.7358Z" fill="#2851E3"/>
<path d="M246.873 96.1561H268.57V106.103H246.873V96.1561Z" fill="#2851E3"/>
<path d="M274.303 87.1563H296V106.103H274.303V87.1563Z" fill="#2851E3"/>
</svg>
