<svg width="16" height="24" viewBox="0 0 16 24" fill="none" xmlns="http://www.w3.org/2000/svg">
<g clip-path="url(#clip0_148_149)">
<path d="M15.7083 4.92188L11.6292 0.328125C11.4417 0.117188 11.1875 0 10.9208 0H10.6667V6H16V5.71406C16 5.41875 15.8958 5.13281 15.7083 4.92188ZM9.33333 6.375V0H1C0.445833 0 0 0.501562 0 1.125V22.875C0 23.4984 0.445833 24 1 24H15C15.5542 24 16 23.4984 16 22.875V7.5H10.3333C9.78333 7.5 9.33333 6.99375 9.33333 6.375ZM2.66667 3.375C2.66667 3.16781 2.81583 3 3 3H6.33333C6.5175 3 6.66667 3.16781 6.66667 3.375V4.125C6.66667 4.33219 6.5175 4.5 6.33333 4.5H3C2.81583 4.5 2.66667 4.33219 2.66667 4.125V3.375ZM2.66667 7.125V6.375C2.66667 6.16781 2.81583 6 3 6H6.33333C6.5175 6 6.66667 6.16781 6.66667 6.375V7.125C6.66667 7.33219 6.5175 7.5 6.33333 7.5H3C2.81583 7.5 2.66667 7.33219 2.66667 7.125ZM8.66667 19.4944V20.625C8.66667 20.8322 8.5175 21 8.33333 21H7.66667C7.4825 21 7.33333 20.8322 7.33333 20.625V19.4864C6.86292 19.4592 6.40542 19.2745 6.02625 18.9544C5.86375 18.817 5.85542 18.5433 6.0025 18.3853L6.49208 17.8598C6.6075 17.7361 6.77917 17.7305 6.91417 17.8256C7.07542 17.9391 7.25833 18 7.44833 18H8.61958C8.89042 18 9.11125 17.7225 9.11125 17.3817C9.11125 17.1028 8.96083 16.8572 8.74583 16.785L6.87083 16.1522C6.09625 15.8906 5.555 15.0544 5.555 14.1183C5.555 12.9689 6.34875 12.0352 7.33292 12.0056V10.875C7.33292 10.6678 7.48208 10.5 7.66625 10.5H8.33292C8.51708 10.5 8.66625 10.6678 8.66625 10.875V12.0136C9.13667 12.0408 9.59417 12.225 9.97333 12.5456C10.1358 12.683 10.1442 12.9567 9.99708 13.1147L9.5075 13.6402C9.39208 13.7639 9.22042 13.7695 9.08542 13.6744C8.92417 13.5605 8.74125 13.5 8.55125 13.5H7.38C7.10917 13.5 6.88833 13.7775 6.88833 14.1183C6.88833 14.3972 7.03875 14.6428 7.25375 14.715L9.12875 15.3478C9.90333 15.6094 10.4446 16.4456 10.4446 17.3817C10.4446 18.5316 9.65083 19.4648 8.66667 19.4944Z" fill="#8FB7D6"/>
</g>
<defs>
<clipPath id="clip0_148_149">
<rect width="16" height="24" fill="white"/>
</clipPath>
</defs>
</svg>
