<svg width="311" height="160" viewBox="0 0 311 160" fill="none" xmlns="http://www.w3.org/2000/svg">
<path d="M0 159.065L6.34694 142.406L12.6939 89.0638L19.0408 44.2115L25.3878 75.4479L31.7347 60.8709L38.0816 38.1244L44.4286 49.9782L50.7755 82.3359L57.1225 72.084L63.4694 15.0575L69.8163 28.353L76.1633 154.26L82.5102 76.5692L88.8572 16.4992L95.2041 24.5086L101.551 55.7449L107.898 33.7994L114.245 0L120.592 75.7683L126.939 14.4168L133.286 52.7014L139.633 12.1742L145.98 133.275L152.327 94.5101L158.674 95.311L165.02 28.6734L171.367 123.184L177.714 86.9813L184.061 120.46L190.408 148.333L196.755 133.916L203.102 157.143L209.449 105.723L215.796 13.2955L222.143 138.081L228.49 33.479L234.837 127.509L241.184 131.513L247.531 112.291L253.878 101.718L260.225 87.7823L266.571 118.538L272.918 19.703L279.265 108.767L285.612 51.0995L291.959 4.00467L298.306 126.547L304.653 130.872L311 49.6579V159.225H304.653H298.306H291.959H285.612H279.265H272.918H266.571H260.225H253.878H247.531H241.184H234.837H228.49H222.143H215.796H209.449H203.102H196.755H190.408H184.061H177.714H171.367H165.02H158.674H152.327H145.98H139.633H133.286H126.939H120.592H114.245H107.898H101.551H95.2041H88.8572H82.5102H76.1633H69.8163H63.4694H57.1225H50.7755H44.4286H38.0816H31.7347H25.3878H19.0408H12.6939H6.34694H0V159.065Z" fill="#B86843" fill-opacity="0.6"/>
</svg>
