<svg width="312" height="161" viewBox="0 0 312 161" fill="none" xmlns="http://www.w3.org/2000/svg">
<path d="M0.5 160.5H311.138" stroke="#CCCCCC"/>
<path d="M0.5 120.5H311.138" stroke="#CCCCCC"/>
<path d="M0.5 80.5H311.138" stroke="#CCCCCC"/>
<path d="M0.5 40.5H311.138" stroke="#CCCCCC"/>
<path d="M0.5 0.5H311.138" stroke="#CCCCCC"/>
<path d="M6.8396 0.5V160.5" stroke="#CCCCCC"/>
<path d="M19.5186 0.5V160.5" stroke="#CCCCCC"/>
<path d="M32.1978 0.5V160.5" stroke="#CCCCCC"/>
<path d="M44.877 0.5V160.5" stroke="#CCCCCC"/>
<path d="M57.5559 0.5V160.5" stroke="#CCCCCC"/>
<path d="M70.2351 0.5V160.5" stroke="#CCCCCC"/>
<path d="M82.9141 0.5V160.5" stroke="#CCCCCC"/>
<path d="M95.5933 0.5V160.5" stroke="#CCCCCC"/>
<path d="M108.272 0.5V160.5" stroke="#CCCCCC"/>
<path d="M120.951 0.5V160.5" stroke="#CCCCCC"/>
<path d="M133.63 0.5V160.5" stroke="#CCCCCC"/>
<path d="M146.31 0.5V160.5" stroke="#CCCCCC"/>
<path d="M158.989 0.5V160.5" stroke="#CCCCCC"/>
<path d="M171.668 0.5V160.5" stroke="#CCCCCC"/>
<path d="M184.347 0.5V160.5" stroke="#CCCCCC"/>
<path d="M197.026 0.5V160.5" stroke="#CCCCCC"/>
<path d="M209.705 0.5V160.5" stroke="#CCCCCC"/>
<path d="M222.384 0.5V160.5" stroke="#CCCCCC"/>
<path d="M235.063 0.5V160.5" stroke="#CCCCCC"/>
<path d="M247.742 0.5V160.5" stroke="#CCCCCC"/>
<path d="M260.421 0.5V160.5" stroke="#CCCCCC"/>
<path d="M273.1 0.5V160.5" stroke="#CCCCCC"/>
<path d="M285.78 0.5V160.5" stroke="#CCCCCC"/>
<path d="M298.458 0.5V160.5" stroke="#CCCCCC"/>
<path d="M311.138 0.5V160.5" stroke="#CCCCCC"/>
<path d="M0.5 0.5V160.5" stroke="#CCCCCC"/>
</svg>
