<svg width="24" height="24" viewBox="0 0 24 24" fill="none" xmlns="http://www.w3.org/2000/svg">
<path d="M12 4C13.0609 4 14.0783 4.42143 14.8284 5.17157C15.5786 5.92172 16 6.93913 16 8C16 9.06087 15.5786 10.0783 14.8284 10.8284C14.0783 11.5786 13.0609 12 12 12C10.9391 12 9.92173 11.5786 9.17159 10.8284C8.42144 10.0783 8.00002 9.06087 8.00002 8C8.00002 6.93913 8.42144 5.92172 9.17159 5.17157C9.92173 4.42143 10.9391 4 12 4ZM12 14C16.42 14 20 15.79 20 18V20H4.00002V18C4.00002 15.79 7.58002 14 12 14Z" fill="#8FB7D6"/>
</svg>
