<svg width="274" height="208" viewBox="0 0 274 208" fill="none" xmlns="http://www.w3.org/2000/svg">
<path d="M54.0782 2.11548C54.0782 2.11548 53.1262 5.8303 59.7805 16.3308C66.4349 26.8313 65.9727 28.3187 65.5889 31.3214C65.205 34.324 65.2278 35.968 61.3614 39.6551C61.3614 39.6551 49.7775 43.4583 48.2295 45.8296C46.6814 48.2009 50.7877 56.8225 50.7877 56.8225C50.7877 56.8225 54.7323 67.2952 40.5675 71.3131C40.5675 71.3131 29.4837 71.3283 26.4103 73.7703C26.4103 73.7703 27.5998 69.5201 23.9026 63.2698C20.2055 57.0195 25.2991 50.9258 25.2991 50.9258C25.2991 50.9258 29.4003 48.6681 32.004 48.4939C34.6077 48.3196 35.4334 47.1276 33.7591 44.1351C33.7591 44.1351 31.3373 42.8724 27.9836 45.5771C24.6299 48.2817 22.1248 50.2086 19.2029 49.9813C16.281 49.754 12.1142 48.5217 9.37922 43.1148C6.64424 37.708 5.20478 30.0637 3.15671 26.5737C1.10864 23.0836 0 22.3184 0 22.3184C0 22.3184 2.5885 24.2832 11.5258 17.6137C20.4631 10.9442 25.1274 13.7978 25.1274 13.7978C25.1274 13.7978 32.3096 15.7272 33.4611 28.3919C33.4611 28.3919 35.5496 40.4607 39.7948 33.1497C39.7948 33.1497 38.3578 29.0334 35.4865 22.9725C32.6151 16.9116 40.2998 11.2068 45.9264 9.29763C51.5529 7.38845 54.0782 2.11548 54.0782 2.11548Z" fill="#4796BD"/>
<path d="M7.82616 24.9929L7.8009 24.9297C9.56866 24.1923 17.7231 28.6092 24.2436 32.4452L24.2082 32.5033C15.0108 27.094 9.19238 24.4272 7.82616 24.9929Z" fill="#444053"/>
<path d="M24.0743 32.42L24.1451 32.3821C29.3524 35.4504 35.6001 39.3445 40.2796 42.5063C40.7241 42.8068 41.1862 43.1048 41.6585 43.3851L41.5852 43.5038C41.113 43.221 40.6483 42.923 40.2013 42.6199C35.5269 39.4607 29.2791 35.4858 24.0743 32.42Z" fill="#444053"/>
<path d="M41.4489 43.4279L41.565 43.337C50.9518 48.9711 64.157 47.6302 64.2731 47.6302L62.816 49.2843C62.6998 49.2919 50.9013 49.0999 41.4489 43.4279Z" fill="#444053"/>
<path d="M50.5529 10.6033C50.5529 10.6033 47.4795 19.1617 49.8155 25.1923C52.1515 31.2229 47.2901 46.1655 47.2901 46.1655C47.2901 46.1655 45.6764 52.4512 43.0803 54.0219C43.0803 54.0219 39.315 58.6964 37.1078 59.2318C34.9007 59.7672 29.8247 64.5098 29.9585 67.1336" stroke="#444053" stroke-width="0.252537" stroke-miterlimit="10"/>
<path d="M54.7095 11.2068C54.7095 11.2068 52.5428 15.6009 49.3179 15.563" stroke="#444053" stroke-width="0.252537" stroke-miterlimit="10"/>
<path d="M59.0533 16.9192C59.0533 16.9192 57.7426 22.9624 49.6235 24.6519" stroke="#444053" stroke-width="0.252537" stroke-miterlimit="10"/>
<path d="M62.4347 25.9247C62.4347 25.9247 58.6138 32.0462 50.3811 31.3012" stroke="#444053" stroke-width="0.252537" stroke-miterlimit="10"/>
<path d="M61.72 37.3923C61.72 37.3923 54.5303 42.1021 49.0931 39.5162" stroke="#444053" stroke-width="0.252537" stroke-miterlimit="10"/>
<path d="M45.4718 11.2068C45.4718 11.2068 47.3507 15.1817 49.4291 13.9847" stroke="#444053" stroke-width="0.252537" stroke-miterlimit="10"/>
<path d="M38.5928 17.245C38.5928 17.245 41.1181 22.5786 49.02 21.6417" stroke="#444053" stroke-width="0.252537" stroke-miterlimit="10"/>
<path d="M37.8301 25.2656C37.8301 25.2656 44.7799 29.488 50.4165 28.344" stroke="#444053" stroke-width="0.252537" stroke-miterlimit="10"/>
<path d="M41.4893 33.814C41.4893 33.814 46.9895 38.2005 49.5704 37.1929" stroke="#444053" stroke-width="0.252537" stroke-miterlimit="10"/>
<path d="M40.2013 37.0842C40.2013 37.0842 41.6887 41.693 40.2265 42.5643" stroke="#444053" stroke-width="0.252537" stroke-miterlimit="10"/>
<path d="M35.33 43.9962C35.33 43.9962 38.1659 41.1804 37.3755 40.6627" stroke="#444053" stroke-width="0.252537" stroke-miterlimit="10"/>
<path d="M30.1201 20.6062C30.1201 20.6062 32.6026 32.3971 29.3777 35.5791" stroke="#444053" stroke-width="0.252537" stroke-miterlimit="10"/>
<path d="M19.7408 48.6605C19.7408 48.6605 30.9762 41.4456 31.9561 37.1827" stroke="#444053" stroke-width="0.252537" stroke-miterlimit="10"/>
<path d="M13.2329 43.5745C13.2329 43.5745 23.8016 38.6475 26.6679 33.9276" stroke="#444053" stroke-width="0.252537" stroke-miterlimit="10"/>
<path d="M20.3292 16.8284C20.3292 16.8284 25.4431 25.3591 22.2485 31.329" stroke="#444053" stroke-width="0.189403" stroke-miterlimit="10"/>
<path d="M9.78589 35.8266C9.78589 35.8266 17.6145 32.6573 19.1979 29.6041" stroke="#444053" stroke-width="0.189403" stroke-miterlimit="10"/>
<path d="M11.4374 19.4294C11.4374 19.4294 14.0562 24.258 12.8364 26.3565" stroke="#444053" stroke-width="0.189403" stroke-miterlimit="10"/>
<path d="M38.5699 47.9964C38.5699 47.9964 45.641 47.0494 46.3986 48.8954" stroke="#444053" stroke-width="0.252537" stroke-miterlimit="10"/>
<path d="M49.8761 62.487C49.8761 62.487 49.4948 54.7543 45.0779 51.7643" stroke="#444053" stroke-width="0.252537" stroke-miterlimit="10"/>
<path d="M30.4862 51.1077C30.4862 51.1077 37.9083 51.984 40.5321 56.8251" stroke="#444053" stroke-width="0.252537" stroke-miterlimit="10"/>
<path d="M42.9338 68.0958C42.9338 68.0958 44.0803 62.4314 38.6583 58.4261" stroke="#444053" stroke-width="0.252537" stroke-miterlimit="10"/>
<path d="M25.14 57.9515C25.14 57.9515 31.2969 57.6358 34.595 60.5627" stroke="#444053" stroke-width="0.252537" stroke-miterlimit="10"/>
<path d="M33.6253 69.1489C33.6253 69.1489 33.0495 64.6538 31.4434 63.8027" stroke="#444053" stroke-width="0.252537" stroke-miterlimit="10"/>
<path opacity="0.1" d="M129.12 49.845C115.263 56.8175 100.108 59.8581 85.3322 62.2016C70.5562 64.5451 55.6414 66.3508 41.0802 71.25C31.7161 74.4017 21.8192 79.5054 17.2028 87.4351C12.7531 95.0491 14.3971 103.168 16.7508 110.244C18.5185 115.565 20.7913 120.949 25.6299 124.202C28.9937 126.46 33.3601 127.518 37.0269 129.44C49.7826 136.119 51.8508 151.787 49.7952 166.199C48.8305 172.959 47.1739 179.808 47.1966 186.435C47.2193 193.061 49.131 199.627 54.3888 203.541C59.6012 207.42 67.4273 208.208 75.0969 207.582C90.6809 206.319 106.351 199.857 121.276 192.912C154.323 177.54 185.978 159.214 217.56 140.932C229.243 134.167 240.978 127.369 251.734 119.356C257.706 114.906 263.603 109.795 266.361 103.678C269.873 95.9153 267.194 87.4578 260.113 83.9652C248.244 78.1064 228.399 85.8315 218.164 78.1796C212.51 73.9673 211.772 66.2599 212.694 59.0247C214.669 43.4785 222.831 26.3439 216.601 13.1893C212.323 4.15348 201.065 -1.10433 188.771 0.196232C175.892 1.55993 161.619 10.0275 157.78 21.4422C153.835 33.1977 141.355 43.6755 129.12 49.845Z" fill="#4796BD"/>
<path opacity="0.1" d="M162.341 198.506C176.303 198.506 187.622 195.71 187.622 192.261C187.622 188.811 176.303 186.015 162.341 186.015C148.378 186.015 137.059 188.811 137.059 192.261C137.059 195.71 148.378 198.506 162.341 198.506Z" fill="#4796BD"/>
<path d="M270.846 34.271H37.1609C35.4189 34.271 34.0067 35.6832 34.0067 37.4252V167.065C34.0067 168.807 35.4189 170.219 37.1609 170.219H270.846C272.588 170.219 274 168.807 274 167.065V37.4252C274 35.6832 272.588 34.271 270.846 34.271Z" fill="url(#paint0_linear_9_2)"/>
<path d="M270.492 36.1827H37.5421C35.8001 36.1827 34.3879 37.5949 34.3879 39.3369V166.613C34.3879 168.355 35.8001 169.767 37.5421 169.767H270.492C272.234 169.767 273.646 168.355 273.646 166.613V39.3369C273.646 37.5949 272.234 36.1827 270.492 36.1827Z" fill="white"/>
<path d="M270.492 36.1827H37.5421C35.8001 36.1827 34.3879 37.5949 34.3879 39.3369V166.613C34.3879 168.355 35.8001 169.767 37.5421 169.767H270.492C272.234 169.767 273.646 168.355 273.646 166.613V39.3369C273.646 37.5949 272.234 36.1827 270.492 36.1827Z" fill="white"/>
<path opacity="0.04" d="M270.492 36.1827H37.5421C35.8001 36.1827 34.3879 37.5949 34.3879 39.3369V166.613C34.3879 168.355 35.8001 169.767 37.5421 169.767H270.492C272.234 169.767 273.646 168.355 273.646 166.613V39.3369C273.646 37.5949 272.234 36.1827 270.492 36.1827Z" fill="#5A5773"/>
<path d="M272.434 34.6499H35.6052C35.283 34.6499 34.9741 34.7779 34.7463 35.0057C34.5185 35.2335 34.3905 35.5424 34.3905 35.8646V41.0063H273.649V35.8646C273.649 35.5424 273.521 35.2335 273.293 35.0057C273.065 34.7779 272.756 34.6499 272.434 34.6499Z" fill="#5A5773"/>
<path d="M39.1659 39.4657C40.0725 39.4657 40.8074 38.7308 40.8074 37.8242C40.8074 36.9177 40.0725 36.1827 39.1659 36.1827C38.2593 36.1827 37.5244 36.9177 37.5244 37.8242C37.5244 38.7308 38.2593 39.4657 39.1659 39.4657Z" fill="white"/>
<path d="M43.5853 39.4657C44.4919 39.4657 45.2268 38.7308 45.2268 37.8242C45.2268 36.9177 44.4919 36.1827 43.5853 36.1827C42.6788 36.1827 41.9438 36.9177 41.9438 37.8242C41.9438 38.7308 42.6788 39.4657 43.5853 39.4657Z" fill="white"/>
<path d="M48.0048 39.4657C48.9113 39.4657 49.6463 38.7308 49.6463 37.8242C49.6463 36.9177 48.9113 36.1827 48.0048 36.1827C47.0982 36.1827 46.3633 36.9177 46.3633 37.8242C46.3633 38.7308 47.0982 39.4657 48.0048 39.4657Z" fill="white"/>
<path opacity="0.1" d="M247.335 70.5757H52.9772C51.5559 70.5757 50.4038 71.7278 50.4038 73.149V144.774C50.4038 146.195 51.5559 147.347 52.9772 147.347H247.335C248.756 147.347 249.908 146.195 249.908 144.774V73.149C249.908 71.7278 248.756 70.5757 247.335 70.5757Z" fill="#4796BD"/>
<path d="M252.135 68.0888L57.8402 63.1367C56.4194 63.1005 55.2383 64.2229 55.2021 65.6437L53.3772 137.245C53.341 138.666 54.4634 139.847 55.8842 139.883L250.178 144.835C251.599 144.871 252.78 143.749 252.817 142.328L254.641 70.7269C254.678 69.3061 253.555 68.125 252.135 68.0888Z" fill="white"/>
<path opacity="0.2" d="M85.11 79.3615L224.086 82.8944" stroke="#5A5773" stroke-width="0.252537" stroke-miterlimit="10"/>
<path opacity="0.2" d="M84.8347 90.218L223.811 93.751" stroke="#5A5773" stroke-width="0.252537" stroke-miterlimit="10"/>
<path opacity="0.2" d="M84.5594 101.072L223.536 104.605" stroke="#5A5773" stroke-width="0.252537" stroke-miterlimit="10"/>
<path opacity="0.2" d="M84.2817 111.929L223.26 115.462" stroke="#5A5773" stroke-width="0.252537" stroke-miterlimit="10"/>
<path opacity="0.2" d="M96.9135 109.302L96.5625 123.103" stroke="#5A5773" stroke-width="0.252537" stroke-miterlimit="10" stroke-dasharray="3.03 3.03"/>
<path opacity="0.2" d="M84.0063 122.785L222.982 126.316" stroke="#5A5773" stroke-width="0.252537" stroke-miterlimit="10"/>
<path opacity="0.2" d="M112.28 123.502L112.803 102.928" stroke="#5A5773" stroke-width="0.252537" stroke-miterlimit="10" stroke-dasharray="3.03 3.03"/>
<path opacity="0.2" d="M204.216 101.302C201.739 101.517 199.32 100.128 197.837 98.668C196.302 97.1528 195.188 95.289 194.112 93.4758C193.772 92.9026 193.418 92.3116 193.062 91.7409C191.186 88.766 189.312 86.7659 187.168 85.4452C186.382 84.9614 185.54 84.5763 184.66 84.2986C184.576 84.4992 184.455 84.6824 184.304 84.8391C183.98 85.1768 183.535 85.3721 183.067 85.382H182.983C182.563 85.3707 182.161 85.2102 181.849 84.9294C181.536 84.6485 181.334 84.2655 181.279 83.8491C180.483 83.8868 179.699 84.0479 178.953 84.3264C176.748 85.1573 175.074 86.9427 173.551 88.7029C171.707 90.8292 169.93 93.0591 168.273 95.3345C167.936 95.7941 167.599 96.2563 167.263 96.7209C165.465 99.2311 163.606 101.825 161.202 103.853C157.974 106.59 154.093 107.769 150.818 107.009C146.888 106.098 144.077 102.625 142.07 99.7009C141.817 99.3221 141.565 98.9433 141.292 98.5569C139.418 95.779 137.481 92.9076 134.622 91.2333C130.857 89.0236 125.657 89.4049 122.248 92.1349C120.586 93.4657 119.339 95.2739 118.129 97.0214C117.715 97.6225 117.286 98.2437 116.844 98.8397C114.571 101.893 112.28 103.55 109.811 103.908C108.831 104.017 107.843 104.017 106.864 103.908C106.212 103.863 105.538 103.812 104.879 103.83C103.234 103.9 101.636 104.394 100.239 105.265C98.8418 106.135 97.6937 107.352 96.906 108.797L96.5575 123.333L205.732 126.111L206.343 102.062C206.156 102.164 205.949 102.225 205.737 102.242C205.525 102.258 205.311 102.23 205.11 102.158C204.91 102.087 204.726 101.974 204.572 101.827C204.418 101.68 204.297 101.502 204.216 101.304V101.302Z" fill="#4796BD"/>
<path opacity="0.2" d="M129.286 89.7963L128.42 123.914" stroke="#5A5773" stroke-width="0.252537" stroke-miterlimit="10" stroke-dasharray="3.03 3.03"/>
<path opacity="0.2" d="M144.512 102.85L143.966 124.308" stroke="#5A5773" stroke-width="0.252537" stroke-miterlimit="10" stroke-dasharray="3.03 3.03"/>
<path opacity="0.2" d="M159.654 105.368L159.164 124.694" stroke="#5A5773" stroke-width="0.252537" stroke-miterlimit="10" stroke-dasharray="3.03 3.03"/>
<path opacity="0.2" d="M174.349 88.0715L173.41 125.056" stroke="#5A5773" stroke-width="0.252537" stroke-miterlimit="10" stroke-dasharray="3.03 3.03"/>
<path opacity="0.2" d="M189.304 86.781L188.322 125.437" stroke="#5A5773" stroke-width="0.252537" stroke-miterlimit="10" stroke-dasharray="3.03 3.03"/>
<path opacity="0.2" d="M205.868 101.314L205.242 125.866" stroke="#5A5773" stroke-width="0.252537" stroke-miterlimit="10" stroke-dasharray="3.03 3.03"/>
<path d="M184.509 82.5939C184.341 82.4328 184.143 82.3064 183.926 82.2219C183.71 82.1374 183.478 82.0965 183.246 82.1015C182.829 82.1091 182.429 82.2635 182.115 82.5375C181.802 82.8115 181.595 83.1874 181.531 83.599C181.515 83.6992 181.509 83.8007 181.511 83.9021C181.511 83.9703 181.511 84.0384 181.526 84.1041C181.58 84.4998 181.766 84.8656 182.054 85.142C182.367 85.4543 182.788 85.635 183.231 85.6471H183.314C183.783 85.6385 184.229 85.4441 184.554 85.1067C184.704 84.9494 184.825 84.7663 184.91 84.5662C184.976 84.4091 185.019 84.2432 185.036 84.0738C185.043 83.9973 185.043 83.9205 185.036 83.844C185.035 83.6111 184.988 83.3808 184.897 83.1663C184.807 82.9518 184.675 82.7573 184.509 82.5939ZM184.42 84.4122C184.364 84.5352 184.286 84.6472 184.19 84.743C184.029 84.9097 183.825 85.0287 183.6 85.0868C183.375 85.145 183.139 85.1402 182.917 85.0729C182.695 85.0056 182.496 84.8783 182.341 84.7052C182.187 84.5321 182.083 84.3197 182.041 84.0915C182.027 84.0258 182.02 83.959 182.019 83.892C182.016 83.7901 182.026 83.6883 182.049 83.5889C182.111 83.3134 182.264 83.0667 182.482 82.8881C182.701 82.7096 182.974 82.6096 183.256 82.604H183.314C183.638 82.6124 183.947 82.7453 184.176 82.9753C184.405 83.2052 184.537 83.5145 184.544 83.8389C184.544 83.8642 184.544 83.892 184.544 83.9172C184.539 84.0893 184.497 84.2583 184.42 84.4122Z" fill="#4796BD"/>
<path d="M205.883 102.499C206.72 102.499 207.398 101.821 207.398 100.984C207.398 100.147 206.72 99.4685 205.883 99.4685C205.046 99.4685 204.368 100.147 204.368 100.984C204.368 101.821 205.046 102.499 205.883 102.499Z" fill="#4796BD"/>
<path d="M182.019 83.892C182.02 83.9591 182.027 84.0259 182.041 84.0915C181.869 84.0915 181.698 84.0915 181.536 84.1041C180.74 84.1421 179.955 84.3031 179.208 84.5814C177.003 85.4123 175.329 87.1977 173.803 88.9579C171.96 91.0817 170.182 93.3141 168.523 95.587C168.187 96.0466 167.856 96.5113 167.513 96.9759C165.712 99.4861 163.854 102.077 161.452 104.108C158.222 106.843 154.338 108.022 151.06 107.262C147.136 106.353 144.325 102.878 142.305 99.9533C142.052 99.5771 141.784 99.1957 141.527 98.8094C139.65 96.0314 137.711 93.1601 134.852 91.4858C131.087 89.2761 125.882 89.6574 122.478 92.3873C120.839 93.7157 119.576 95.5238 118.367 97.2714C117.95 97.8724 117.521 98.4962 117.079 99.0897C114.806 102.143 112.513 103.799 110.043 104.158C109.064 104.265 108.075 104.265 107.096 104.158C106.435 104.098 105.772 104.072 105.108 104.08C103.346 104.153 101.639 104.714 100.177 105.7C98.7151 106.687 97.5556 108.06 96.8277 109.666L96.363 109.464C97.1312 107.771 98.3539 106.324 99.8951 105.284C101.436 104.245 103.236 103.653 105.093 103.575C105.774 103.565 106.456 103.592 107.134 103.656C108.076 103.758 109.027 103.758 109.97 103.656C112.301 103.32 114.493 101.726 116.672 98.7866C117.109 98.1982 117.536 97.5795 117.95 96.981C119.18 95.2132 120.453 93.3672 122.17 91.9883C123.99 90.5643 126.194 89.7143 128.499 89.5465C130.804 89.3788 133.107 89.9009 135.115 91.0464C138.075 92.7813 140.047 95.7006 141.956 98.5265C142.209 98.9053 142.461 99.2841 142.731 99.6654C144.688 102.514 147.416 105.896 151.181 106.767C154.303 107.492 158.022 106.353 161.131 103.719C163.477 101.731 165.323 99.173 167.104 96.6779C167.435 96.2133 167.77 95.7486 168.114 95.2865C169.783 93.0136 171.569 90.761 173.417 88.622C174.985 86.8138 176.7 84.9779 179.026 84.1067C179.831 83.809 180.678 83.6386 181.536 83.6016C181.705 83.6016 181.88 83.5864 182.041 83.6016C182.022 83.6971 182.014 83.7946 182.019 83.892Z" fill="#4796BD"/>
<path d="M205.972 101.221C203.009 102.327 199.878 100.676 198.095 98.923C196.56 97.4078 195.446 95.5415 194.37 93.7283C194.029 93.1576 193.676 92.5641 193.317 91.9959C191.441 89.0185 189.567 87.0184 187.42 85.6977C186.634 85.2151 185.792 84.8309 184.913 84.5537C184.751 84.5006 184.587 84.4552 184.407 84.4122C184.484 84.2591 184.526 84.091 184.531 83.9198C184.698 83.9627 184.862 84.0107 185.036 84.0612C185.964 84.3522 186.853 84.7577 187.68 85.2683C189.898 86.6295 191.822 88.6801 193.741 91.7257C194.102 92.3015 194.456 92.895 194.802 93.4733C195.863 95.2562 196.959 97.1022 198.446 98.5619C200.12 100.208 203.052 101.772 205.792 100.749L205.972 101.221Z" fill="#4796BD"/>
<path opacity="0.5" d="M90.0867 77.2225L85.391 77.1028C85.2655 77.0996 85.1612 77.1988 85.158 77.3243L85.1117 79.1419C85.1085 79.2674 85.2076 79.3717 85.3331 79.3749L90.0288 79.4946C90.1543 79.4978 90.2586 79.3987 90.2618 79.2732L90.3081 77.4555C90.3113 77.33 90.2122 77.2257 90.0867 77.2225Z" fill="#4796BD"/>
<path d="M89.8076 88.0762L85.112 87.9565C84.9865 87.9533 84.8822 88.0524 84.879 88.1779L84.8326 89.9956C84.8294 90.1211 84.9286 90.2254 85.0541 90.2286L89.7497 90.3482C89.8752 90.3514 89.9795 90.2523 89.9827 90.1268L90.0291 88.3092C90.0323 88.1837 89.9331 88.0794 89.8076 88.0762Z" fill="#4796BD"/>
<path opacity="0.5" d="M89.5311 98.9348L84.8355 98.8151C84.71 98.8119 84.6057 98.911 84.6025 99.0365L84.5562 100.854C84.553 100.98 84.6521 101.084 84.7776 101.087L89.4732 101.207C89.5987 101.21 89.703 101.111 89.7062 100.985L89.7526 99.1678C89.7558 99.0423 89.6566 98.938 89.5311 98.9348Z" fill="#4796BD"/>
<path opacity="0.5" d="M89.2548 109.788L84.5591 109.669C84.4336 109.665 84.3293 109.765 84.3261 109.89L84.2798 111.708C84.2766 111.833 84.3757 111.938 84.5012 111.941L89.1969 112.06C89.3224 112.064 89.4267 111.964 89.4299 111.839L89.4762 110.021C89.4794 109.896 89.3803 109.792 89.2548 109.788Z" fill="#4796BD"/>
<path opacity="0.5" d="M88.9782 120.645L84.2825 120.525C84.157 120.522 84.0527 120.621 84.0495 120.746L84.0032 122.564C84 122.689 84.0991 122.794 84.2246 122.797L88.9203 122.917C89.0457 122.92 89.1501 122.821 89.1533 122.695L89.1996 120.878C89.2028 120.752 89.1037 120.648 88.9782 120.645Z" fill="#4796BD"/>
<path opacity="0.5" d="M98.5329 125.434L93.8372 125.315C93.7117 125.312 93.6074 125.411 93.6042 125.536L93.5579 127.354C93.5547 127.479 93.6538 127.584 93.7793 127.587L98.4749 127.707C98.6004 127.71 98.7047 127.611 98.7079 127.485L98.7543 125.667C98.7575 125.542 98.6583 125.438 98.5329 125.434Z" fill="#4796BD"/>
<path opacity="0.5" d="M114.563 125.843L109.868 125.723C109.742 125.72 109.638 125.819 109.635 125.945L109.588 127.762C109.585 127.888 109.684 127.992 109.81 127.995L114.505 128.115C114.631 128.118 114.735 128.019 114.738 127.894L114.785 126.076C114.788 125.95 114.689 125.846 114.563 125.843Z" fill="#4796BD"/>
<path d="M130.133 126.954L125.435 126.813C125.31 126.81 125.205 126.908 125.201 127.034L125.147 128.852C125.143 128.978 125.242 129.083 125.367 129.086L130.064 129.227C130.19 129.231 130.295 129.132 130.299 129.007L130.353 127.188C130.357 127.063 130.258 126.958 130.133 126.954Z" fill="#4796BD"/>
<path opacity="0.5" d="M146.249 126.65L141.553 126.53C141.428 126.527 141.323 126.626 141.32 126.752L141.274 128.569C141.27 128.695 141.37 128.799 141.495 128.802L146.191 128.922C146.316 128.925 146.421 128.826 146.424 128.701L146.47 126.883C146.473 126.757 146.374 126.653 146.249 126.65Z" fill="#4796BD"/>
<path opacity="0.5" d="M161.444 127.039L156.749 126.92C156.623 126.917 156.519 127.016 156.516 127.141L156.469 128.959C156.466 129.084 156.565 129.189 156.691 129.192L161.386 129.312C161.512 129.315 161.616 129.216 161.619 129.09L161.666 127.272C161.669 127.147 161.57 127.043 161.444 127.039Z" fill="#4796BD"/>
<path d="M175.689 127.4L170.993 127.28C170.867 127.277 170.763 127.376 170.76 127.501L170.714 129.319C170.71 129.445 170.81 129.549 170.935 129.552L175.631 129.672C175.756 129.675 175.861 129.576 175.864 129.45L175.91 127.633C175.913 127.507 175.814 127.403 175.689 127.4Z" fill="#4796BD"/>
<path d="M190.708 127.782L186.012 127.663C185.886 127.659 185.782 127.759 185.779 127.884L185.733 129.702C185.729 129.827 185.828 129.932 185.954 129.935L190.65 130.054C190.775 130.058 190.879 129.958 190.883 129.833L190.929 128.015C190.932 127.89 190.833 127.786 190.708 127.782Z" fill="#4796BD"/>
<path d="M206.85 129.258L202.4 129.125C202.207 129.119 202.045 129.271 202.039 129.465L201.992 131.036C201.986 131.23 202.138 131.392 202.332 131.397L206.782 131.531C206.976 131.537 207.138 131.384 207.144 131.19L207.191 129.62C207.196 129.426 207.044 129.264 206.85 129.258Z" fill="#4796BD"/>
<path d="M247.706 152.908C248.284 152.908 248.845 153.108 249.292 153.475C249.739 153.842 250.045 154.353 250.158 154.92C250.271 155.487 250.184 156.076 249.911 156.586C249.638 157.096 249.197 157.496 248.663 157.718C248.129 157.939 247.534 157.968 246.98 157.8C246.427 157.633 245.949 157.278 245.627 156.797C245.306 156.316 245.161 155.739 245.218 155.163C245.275 154.587 245.529 154.049 245.938 153.64C246.17 153.407 246.445 153.223 246.749 153.097C247.052 152.972 247.377 152.907 247.706 152.908ZM247.706 152.519C247.134 152.519 246.575 152.689 246.099 153.007C245.623 153.325 245.253 153.776 245.034 154.305C244.815 154.834 244.758 155.415 244.87 155.976C244.982 156.537 245.258 157.053 245.663 157.457C246.068 157.861 246.584 158.136 247.145 158.247C247.706 158.358 248.288 158.3 248.816 158.08C249.344 157.861 249.795 157.489 250.113 157.013C250.43 156.537 250.598 155.978 250.597 155.405C250.597 155.026 250.522 154.65 250.377 154.3C250.231 153.95 250.018 153.631 249.749 153.363C249.481 153.095 249.162 152.883 248.812 152.738C248.461 152.593 248.085 152.519 247.706 152.519Z" fill="#4796BD"/>
<path d="M246.931 156.259L247.082 156.057C247.23 156.202 247.428 156.284 247.635 156.287C247.888 156.287 248.087 156.158 248.087 155.953C248.087 155.749 247.903 155.585 247.393 155.585V155.352C247.847 155.352 248.019 155.201 248.019 155.004C248.019 154.807 247.865 154.713 247.64 154.713C247.463 154.719 247.294 154.788 247.163 154.908L247.001 154.713C247.181 154.554 247.412 154.465 247.653 154.461C248.044 154.461 248.335 154.65 248.335 154.981C248.335 155.213 248.165 155.368 247.918 155.451V155.464C248.045 155.477 248.164 155.535 248.253 155.627C248.341 155.72 248.395 155.841 248.403 155.969C248.403 156.327 248.064 156.544 247.66 156.544C247.526 156.55 247.391 156.527 247.266 156.478C247.14 156.429 247.026 156.354 246.931 156.259Z" fill="#4796BD"/>
<path d="M259.648 153.077C260.227 153.077 260.787 153.277 261.234 153.644C261.682 154.011 261.988 154.522 262.1 155.089C262.213 155.657 262.126 156.245 261.853 156.756C261.581 157.266 261.14 157.665 260.605 157.887C260.071 158.108 259.476 158.138 258.923 157.97C258.369 157.802 257.891 157.447 257.57 156.966C257.248 156.485 257.104 155.908 257.16 155.332C257.217 154.757 257.472 154.218 257.881 153.809C258.112 153.577 258.388 153.392 258.691 153.266C258.994 153.141 259.32 153.076 259.648 153.077ZM259.648 152.688C259.076 152.688 258.517 152.858 258.042 153.175C257.566 153.493 257.196 153.945 256.977 154.473C256.758 155.001 256.701 155.583 256.812 156.144C256.924 156.705 257.199 157.22 257.604 157.624C258.008 158.029 258.523 158.304 259.084 158.416C259.645 158.527 260.226 158.47 260.755 158.251C261.283 158.032 261.735 157.662 262.052 157.186C262.37 156.711 262.54 156.152 262.54 155.58C262.54 155.2 262.466 154.824 262.32 154.473C262.175 154.122 261.962 153.803 261.694 153.534C261.425 153.266 261.106 153.053 260.755 152.908C260.404 152.762 260.028 152.688 259.648 152.688Z" fill="#5A5773"/>
<path d="M259.686 155.277C259.686 155.153 259.686 154.996 259.704 154.873H259.686C259.615 154.981 259.535 155.09 259.464 155.198L258.959 155.858H260.325V156.123H258.605V155.911L259.631 154.562H260.007V156.709H259.694L259.686 155.277Z" fill="#5A5773"/>
<path d="M253.06 153.928C253.109 153.88 253.176 153.852 253.245 153.852C253.315 153.852 253.381 153.88 253.431 153.928L254.734 155.236C254.758 155.26 254.778 155.288 254.791 155.319C254.804 155.351 254.811 155.384 254.811 155.418C254.811 155.452 254.804 155.486 254.791 155.517C254.778 155.548 254.758 155.576 254.734 155.6L253.451 156.888C253.427 156.914 253.399 156.935 253.366 156.949C253.334 156.963 253.299 156.971 253.264 156.971C253.229 156.971 253.194 156.963 253.162 156.949C253.13 156.935 253.101 156.914 253.077 156.888C253.052 156.864 253.031 156.835 253.017 156.804C253.003 156.772 252.996 156.737 252.996 156.702C252.996 156.667 253.003 156.633 253.017 156.601C253.031 156.569 253.052 156.54 253.077 156.517L254.178 155.405L253.06 154.299C253.034 154.276 253.013 154.247 252.999 154.215C252.984 154.182 252.977 154.148 252.977 154.112C252.977 154.077 252.984 154.042 252.999 154.01C253.013 153.978 253.034 153.949 253.06 153.926V153.928Z" fill="#5A5773"/>
<path d="M250.837 155.405C250.836 155.968 251.002 156.518 251.314 156.986C251.626 157.454 252.069 157.819 252.589 158.034C253.108 158.25 253.68 158.307 254.231 158.197C254.783 158.088 255.29 157.817 255.687 157.419C256.085 157.022 256.356 156.515 256.465 155.963C256.574 155.412 256.518 154.84 256.302 154.321C256.086 153.801 255.722 153.358 255.254 153.046C254.786 152.734 254.236 152.568 253.673 152.569C252.921 152.57 252.2 152.869 251.669 153.401C251.137 153.932 250.838 154.653 250.837 155.405ZM251.274 155.405C251.273 154.848 251.465 154.308 251.818 153.877C252.171 153.446 252.662 153.15 253.208 153.041C253.754 152.932 254.322 153.015 254.813 153.277C255.305 153.539 255.69 153.964 255.904 154.478C256.117 154.993 256.146 155.565 255.984 156.098C255.823 156.631 255.482 157.092 255.019 157.402C254.556 157.711 253.999 157.851 253.445 157.796C252.891 157.741 252.373 157.496 251.979 157.102C251.755 156.88 251.577 156.616 251.456 156.325C251.335 156.033 251.273 155.721 251.274 155.405Z" fill="#5A5773"/>
<path opacity="0.2" d="M98.3555 47.7413H42.9186C42.3803 47.7413 41.9438 48.1778 41.9438 48.7161V52.7895C41.9438 53.3279 42.3803 53.7643 42.9186 53.7643H98.3555C98.8939 53.7643 99.3303 53.3279 99.3303 52.7895V48.7161C99.3303 48.1778 98.8939 47.7413 98.3555 47.7413Z" fill="#5A5773"/>
<path d="M178.591 191.205C178.172 189.69 177.9 188.351 177.9 188.351C177.9 188.351 177.917 186.685 177.122 185.46L177.107 185.043L176.988 181.962C177.179 181.395 177.418 180.845 177.703 180.318C178.223 179.328 177.531 175.803 177.531 175.803C177.531 175.803 175.281 170.881 175.66 167.689C176.038 164.497 170.897 153.761 170.897 153.761C170.884 152.708 170.993 151.656 171.22 150.627C171.26 150.411 171.272 150.19 171.255 149.971C171.255 149.943 171.255 149.92 171.255 149.89C171.255 149.89 171.255 149.908 171.255 149.915C171.106 147.827 169.301 143.968 169.301 143.968L169.235 136.485C169.235 136.485 170.121 132.036 168.169 126.187C167.49 124.146 167.04 122.51 166.748 121.242C166.715 121.101 166.682 120.962 166.654 120.831C170.19 120.151 172.869 119.598 172.869 119.598C172.869 119.598 170.483 111.075 169.035 109.623C167.588 108.171 166.295 103.484 166.295 103.484C166.295 103.484 165.338 97.4355 166.437 95.6147C167.535 93.7939 167.586 90.7256 167.586 90.7256C167.586 90.7256 170.177 88.6851 170.477 87.8139C170.778 86.9426 171.258 84.9829 171.22 83.9602C171.182 82.9374 170.811 82.0383 170.902 81.4954C170.993 80.9524 170.025 78.9448 170.432 77.9599C170.535 77.6577 170.583 77.3395 170.573 77.0204C170.573 77.0204 170.573 77.0002 170.573 76.9927C170.573 76.9851 170.573 76.9927 170.573 76.98C170.545 76.1337 170.434 75.2922 170.243 74.4673C169.448 73.845 168.531 73.3982 167.551 73.1566L167.482 72.9293L167.306 72.3207C167.215 72.2652 167.126 72.2172 167.038 72.1743L167.023 71.9546L166.965 71.0833L167.306 69.1135C167.993 65.6664 163.419 65.3255 163.419 65.3255C163.123 64.8118 162.647 64.4265 162.083 64.2446C161.154 63.9567 162.129 69.3863 162.571 69.7171C162.901 69.9696 163.965 71.6414 164.477 72.4647L164.558 72.5985C164.487 72.67 164.42 72.7459 164.359 72.8258L164.578 74.0052L164.611 74.1845C164.325 74.5704 164.096 74.9957 163.932 75.4471C163.932 75.4471 164.8 76.331 164.674 77.3588C164.548 78.3867 165.018 79.6443 165.04 79.7125C164.99 79.6569 164.379 79.0458 163.8 79.2226C163.222 79.3993 161.603 79.9524 161.603 79.9524C161.603 79.9524 160.389 80.2049 160.51 80.4802C160.631 80.7555 159.732 81.9651 159.732 81.9651L156.328 78.9776C156.292 78.8867 156.255 78.7958 156.222 78.6998C156.068 78.2607 155.955 77.8084 155.883 77.3487C156.238 77.2482 156.585 77.1225 156.921 76.9725C157.262 76.8412 157.566 76.6299 157.808 76.3563C158.123 75.9497 158.166 75.4143 158.282 74.9193C158.505 73.9546 159.04 73.0809 159.396 72.1566C160.008 70.604 160.169 68.9101 159.861 67.27C159.789 66.7628 159.598 66.2798 159.303 65.8608C158.737 65.1436 157.755 64.881 157.03 64.3204C156.305 63.7597 155.808 62.8784 154.967 62.4667C154.209 62.098 153.3 62.1788 152.467 62.3506C150.828 62.6802 149.266 63.3132 147.86 64.2168C147.393 64.5173 146.88 64.8658 146.325 64.7876C145.85 64.7194 145.489 64.3557 145.171 64.0072C145.171 63.9921 145.171 63.9769 145.183 63.9618L145.146 63.9188C144.828 64.7043 144.686 65.5501 144.731 66.3962C144.731 66.5275 144.741 66.6589 144.762 66.7902C144.762 66.8356 144.762 66.8811 144.774 66.9265C144.777 66.9644 144.777 67.0023 144.774 67.0402C144.776 67.0988 144.77 67.1574 144.757 67.2144C144.694 67.3858 144.595 67.5417 144.466 67.6715C144.371 67.7887 144.287 67.9137 144.214 68.0453C144.214 67.9998 144.239 67.9544 144.254 67.9114C144.056 68.2249 143.951 68.5886 143.954 68.9595C143.946 69.2295 144.045 69.4916 144.229 69.6893C144.399 69.844 144.585 69.9819 144.782 70.1009C144.73 70.4647 144.712 70.8324 144.726 71.1995C144.772 72.2933 145.101 73.3566 145.68 74.286C146.259 75.2153 147.068 75.979 148.029 76.5027L148.151 76.7805C148.613 77.869 148.979 79.1443 148.886 80.3388C148.886 80.4272 148.868 80.513 148.855 80.5913C148.815 80.6368 148.777 80.6848 148.742 80.7327C148.742 80.7327 143.32 80.9853 141.999 79.8867C140.678 78.7882 138.885 82.8338 138.885 82.8338C138.885 82.8338 136.956 83.2859 136.554 82.9248C136.153 82.5636 133.885 82.9727 133.885 82.9727C132.921 82.181 131.692 81.7856 130.448 81.8666C129.668 81.3186 128.813 80.8849 127.91 80.5787L127.849 80.5585C127.453 80.431 127.032 80.3939 126.619 80.4499C126.619 80.4499 123.869 78.3488 123.046 77.1947C122.223 76.0406 118.349 71.7955 118.331 71.7778L118.313 71.5631L118.248 70.9267C118.139 70.9473 118.028 70.9608 117.917 70.9671C117.895 70.9048 117.867 70.8316 117.834 70.7474C117.596 70.1361 117.31 69.5449 116.978 68.9797C116.978 68.9797 116.947 68.1715 117.175 67.9695C117.402 67.7675 116.955 64.8128 116.955 64.8128C116.955 64.8128 114.336 59.2873 112.343 63.5653C112.343 63.5653 108.379 66.4366 111.917 69.4645C111.917 69.4645 113.306 70.0706 113.518 70.5858C113.657 70.9217 114.157 71.8485 114.493 72.4697L114.642 72.7475L114.604 72.7804L114.674 73.3056L114.702 73.5102C114.073 73.9016 113.652 74.2804 113.768 74.5481C113.975 75.0067 114.125 75.4894 114.212 75.985C114.212 75.985 119.162 81.7202 119.872 84.2228C119.872 84.2228 132.827 91.2635 137.014 91.6423L136.438 95.4304C136.438 95.4304 136.302 97.7032 136.388 98.5012C136.473 99.2992 136.059 102.984 136.059 102.984C136.059 102.984 135.554 108.391 134.963 109.166C134.372 109.941 134.615 113.164 134.615 113.164C134.528 114.714 134.309 116.254 133.958 117.767C133.425 119.833 133.958 122.343 133.958 122.343C133.958 122.343 132.034 127.265 136.961 123.79C136.961 123.79 139.438 123.538 142.292 123.333C142.292 123.427 142.292 123.52 142.292 123.619C142.292 123.987 142.307 124.376 142.32 124.805C142.388 127.583 142.519 131.399 142.754 134.283C143.173 139.382 145.118 149.435 145.118 149.435L145.312 154.514C145.231 154.995 145.202 155.484 145.224 155.971C145.257 157.762 145.799 159.507 146.787 161.002L147.307 164.375C147.307 164.375 148.317 166.57 148.373 167.911C148.374 168.02 148.366 168.129 148.348 168.237C148.32 168.409 148.311 168.583 148.322 168.757C148.322 170.297 149.398 173.942 149.398 173.942C149.398 173.942 149.598 177.649 150.156 177.843C150.638 178.01 149.603 180.005 149.295 180.581C149.295 180.545 149.277 180.51 149.269 180.475L149.206 180.588C149.102 180.892 149.055 181.212 149.067 181.533C149.046 181.787 149.097 182.043 149.215 182.27C149.333 182.496 149.513 182.685 149.734 182.813C150.815 183.419 151.403 183.934 150.514 184.184C150.187 184.252 149.863 184.336 149.545 184.437L149.494 184.316C149.379 184.372 149.285 184.465 149.227 184.58C149.169 184.695 149.15 184.826 149.173 184.952C149.158 185.222 149.264 185.616 149.552 186.197C150.517 188.152 151.163 188.882 151.163 188.882L151.588 188.816C151.531 188.981 151.454 189.139 151.358 189.286C151.205 189.525 150.998 189.724 150.752 189.867C150.523 190.016 150.264 190.115 149.994 190.157C149.693 190.178 149.399 190.262 149.133 190.404C148.867 190.547 148.633 190.744 148.449 190.983C147.923 191.72 147.613 192.71 148.742 193.526L152.767 194.743C152.767 194.743 159.634 195.369 159.212 193.849C158.79 192.329 158.52 190.995 158.52 190.995C158.511 190.058 158.285 189.135 157.861 188.298C157.787 188.162 157.702 188.031 157.608 187.907L157.848 187.869C157.848 187.869 158.219 184.462 158.858 183.793C159.005 183.636 159.035 183.523 158.997 183.434C159.058 183.248 158.881 183.147 158.654 183.094C158.639 183.139 158.623 183.182 158.611 183.23C158.397 183.193 158.179 183.177 157.962 183.184C157.962 183.184 157.671 181.417 158.368 180.745C158.424 180.669 158.464 180.583 158.484 180.491C158.504 180.399 158.505 180.304 158.487 180.212C158.484 179.969 158.45 179.727 158.386 179.492C158.386 179.492 158.371 179.52 158.361 179.535C157.934 177.939 156.606 175.426 156.606 175.426C156.606 175.426 156.489 173.815 156.909 173.154C157.328 172.492 156.515 164.391 156.515 164.391C156.515 164.391 156.53 160.459 155.959 158.65C155.388 156.842 156.406 154.648 156.406 154.648C156.406 154.648 156.406 154.605 156.388 154.532C156.394 154.523 156.398 154.514 156.401 154.504C156.401 154.504 156.368 154.251 156.313 153.888C156.313 153.888 156.313 153.913 156.313 153.925C156.161 152.89 155.876 151.016 155.686 150.153C155.416 148.925 155.467 142.998 155.467 142.998L156.371 140.432L158.315 144.726L160.427 150.461C160.427 150.461 161.411 151.65 161.48 152.893C161.48 152.953 161.48 153.014 161.48 153.074C161.48 153.208 161.48 153.327 161.48 153.463C161.475 154.198 161.705 154.916 162.136 155.511C162.136 155.511 162.742 158.234 163.545 158.903C164.348 159.572 164.404 160.923 164.404 160.923C164.404 160.923 165.5 164.865 165.972 165.547C166.369 166.123 166.452 167.742 166.477 168.237C166.477 168.328 166.477 168.381 166.477 168.381C166.477 168.381 166.664 169.797 166.705 170.994C166.705 171.141 166.705 171.285 166.705 171.419C166.705 171.419 166.705 171.399 166.705 171.388C166.716 171.714 166.69 172.041 166.626 172.361C166.626 172.376 166.626 172.396 166.611 172.416C166.611 172.348 166.611 172.28 166.611 172.214C166.446 173.033 166.383 173.87 166.422 174.704C166.452 176.136 166.735 177.821 167.639 178.783C169.205 180.447 170.142 180.194 170.142 180.194C170.142 180.194 169.503 182.374 168.626 182.838C168.594 182.856 168.563 182.877 168.535 182.902C168.535 182.861 168.515 182.818 168.508 182.778C168.415 182.89 168.347 183.019 168.307 183.159C168.268 183.298 168.258 183.445 168.278 183.588C168.25 184.538 168.907 186.051 169.5 186.735C169.715 186.931 169.976 187.072 170.258 187.144C170.214 187.177 170.169 187.208 170.121 187.235C170.025 187.294 169.924 187.346 169.821 187.392C169.679 187.461 169.528 187.507 169.371 187.528C169.07 187.548 168.777 187.632 168.511 187.775C168.245 187.917 168.012 188.115 167.828 188.354C167.303 189.089 166.99 190.079 168.119 190.894L172.147 192.112C172.147 192.112 179.013 192.725 178.591 191.205Z" fill="url(#paint1_linear_9_2)"/>
<path d="M152.59 194.751L148.694 193.538C147.6 192.72 147.898 191.73 148.408 190.995C148.583 190.758 148.807 190.562 149.064 190.419C149.322 190.277 149.607 190.192 149.901 190.17C150.16 190.128 150.408 190.029 150.626 189.882C150.866 189.739 151.068 189.539 151.214 189.301C151.477 188.845 151.609 188.325 151.595 187.798C151.595 187.798 155.77 186.399 156.972 187.591C157.187 187.807 157.369 188.053 157.512 188.321C157.925 189.159 158.145 190.079 158.156 191.013C158.156 191.013 158.421 192.346 158.83 193.867C159.24 195.387 152.59 194.751 152.59 194.751Z" fill="#2D293D"/>
<path d="M171.346 192.132L167.447 190.91C166.354 190.091 166.654 189.101 167.162 188.366C167.336 188.129 167.56 187.933 167.818 187.791C168.075 187.649 168.361 187.564 168.654 187.543C168.806 187.522 168.952 187.476 169.089 187.407C169.19 187.362 169.288 187.311 169.382 187.253C170.435 186.619 170.349 185.169 170.349 185.169C170.349 185.169 174.523 183.77 175.728 184.962C175.888 185.124 176.031 185.302 176.152 185.495C176.925 186.72 176.91 188.392 176.91 188.392C176.91 188.392 177.177 189.728 177.584 191.245C177.991 192.763 171.346 192.132 171.346 192.132Z" fill="#2D293D"/>
<path opacity="0.1" d="M156.972 187.581C157.187 187.797 157.369 188.043 157.512 188.311L151.214 189.288C151.477 188.832 151.609 188.312 151.595 187.786C151.595 187.786 155.77 186.389 156.972 187.581Z" fill="black"/>
<path opacity="0.1" d="M176.144 185.495L176.19 186.68C175.271 188.339 170.495 188.167 169.081 187.407C169.182 187.362 169.28 187.311 169.374 187.253C170.427 186.619 170.341 185.169 170.341 185.169C170.341 185.169 174.516 183.77 175.72 184.962C175.881 185.124 176.023 185.302 176.144 185.495Z" fill="black"/>
<path d="M176.7 180.361C176.424 180.888 176.194 181.437 176.011 182.003L176.175 186.25C175.165 188.066 169.551 187.69 168.76 186.755C167.97 185.821 167.068 183.321 167.912 182.856C168.755 182.391 169.371 180.217 169.371 180.217C169.371 180.217 168.465 180.47 166.947 178.803C165.429 177.136 165.712 173.303 165.937 172.378C166.162 171.454 165.78 168.398 165.78 168.398C165.78 168.398 165.753 166.247 165.295 165.565C164.838 164.883 163.78 160.938 163.78 160.938C163.78 160.938 163.73 159.592 162.949 158.918C162.169 158.244 161.581 155.524 161.581 155.524C161.114 154.856 160.893 154.046 160.954 153.234C161.063 151.882 159.932 150.471 159.932 150.471L157.881 144.736L155.992 140.443L155.121 143.008C155.121 143.008 155.08 148.933 155.343 150.16C155.606 151.387 156.055 154.658 156.055 154.658C156.055 154.658 155.06 156.85 155.616 158.658C156.171 160.466 156.159 164.401 156.159 164.401C156.159 164.401 156.957 172.502 156.55 173.164C156.143 173.825 156.262 175.437 156.262 175.437C156.262 175.437 158.649 180.083 157.974 180.755C157.3 181.427 157.583 183.192 157.583 183.192C157.583 183.192 159.098 183.134 158.467 183.806C157.835 184.477 157.495 187.882 157.495 187.882L151.022 188.892C151.022 188.892 150.396 188.162 149.459 186.205C148.522 184.248 149.552 184.424 150.408 184.184C151.264 183.945 150.699 183.427 149.651 182.813C148.603 182.2 149.146 180.732 149.146 180.732C149.146 180.732 150.603 178.038 150.057 177.843C149.512 177.649 149.315 173.942 149.315 173.942C149.315 173.942 148.07 169.573 148.305 168.386C148.54 167.199 147.295 164.386 147.295 164.386L146.79 161.012C144.704 157.736 145.335 154.648 145.335 154.648L145.133 149.43C145.133 149.43 143.239 139.379 142.827 134.278C142.575 131.01 142.431 126.545 142.37 123.757C142.335 122.192 142.322 121.156 142.322 121.156L165.46 117.843C165.46 117.843 165.477 118.916 166.013 121.278C166.298 122.54 166.735 124.182 167.397 126.225C169.291 132.073 168.44 136.523 168.44 136.523L168.513 144.006C168.513 144.006 170.748 148.928 170.384 150.665C170.169 151.695 170.069 152.745 170.084 153.797C170.084 153.797 175.074 164.537 174.713 167.729C174.351 170.921 176.531 175.843 176.531 175.843C176.531 175.843 177.2 179.371 176.7 180.361Z" fill="#575988"/>
<path opacity="0.05" d="M162.341 152.857L169.376 151.643C169.376 151.643 165.538 155.885 162.341 152.857Z" fill="black"/>
<path opacity="0.1" d="M168.089 144.774C168.089 144.774 168.427 147.264 166.929 148.264C166.929 148.264 169.657 147.728 168.089 144.774Z" fill="black"/>
<path opacity="0.1" d="M167.349 136.831C167.349 136.831 161.624 141.925 159.459 141.604C157.295 141.284 167.349 136.831 167.349 136.831Z" fill="black"/>
<path opacity="0.1" d="M153.669 155.479C153.669 155.479 149.214 156.668 149.148 158.479C149.083 160.289 153.669 155.479 153.669 155.479Z" fill="black"/>
<path opacity="0.05" d="M155.515 177.864C155.515 177.864 149.217 179.29 151.047 180.028C152.878 180.765 155.863 181.29 155.863 181.29C155.863 181.29 157.909 181.326 155.515 177.864Z" fill="black"/>
<g opacity="0.05">
<path opacity="0.05" d="M149.815 181.356C149.652 181.262 149.513 181.132 149.407 180.977C149.301 180.822 149.23 180.645 149.201 180.46L149.141 180.576C149.141 180.576 148.603 182.051 149.646 182.657C149.767 182.725 149.878 182.793 149.987 182.861C150.171 182.818 150.376 182.785 150.568 182.727C151.431 182.48 150.863 181.962 149.815 181.356Z" fill="black"/>
<path opacity="0.05" d="M157.962 180.614C158.131 180.444 158.108 180.033 157.982 179.505C157.712 179.934 157.666 180.583 157.682 181.076C157.74 180.903 157.835 180.745 157.962 180.614Z" fill="black"/>
<path opacity="0.05" d="M155.967 153.89C155.757 154.535 155.638 155.205 155.613 155.883C155.717 155.411 155.864 154.949 156.053 154.504C156.053 154.504 156.02 154.274 155.967 153.89Z" fill="black"/>
<path opacity="0.05" d="M170.384 150.516C170.42 150.322 170.433 150.123 170.422 149.925C170.356 150.332 170.316 150.706 170.288 151.034C170.316 150.86 170.349 150.693 170.384 150.516Z" fill="black"/>
<path opacity="0.05" d="M156.55 173.02C156.631 172.886 156.664 172.439 156.664 171.82C156.484 172.305 156.399 172.819 156.411 173.336C156.445 173.225 156.491 173.119 156.55 173.02Z" fill="black"/>
<path opacity="0.05" d="M158.272 183.109C157.876 184.336 157.659 186.44 157.659 186.44L151.186 187.45C151.186 187.45 150.56 186.72 149.628 184.758C149.547 184.586 149.479 184.432 149.426 184.291C149.045 184.485 148.906 184.894 149.464 186.058C150.401 188.016 151.025 188.745 151.025 188.745L157.497 187.735C157.497 187.735 157.851 184.329 158.472 183.657C158.772 183.334 158.563 183.185 158.272 183.109Z" fill="black"/>
<path opacity="0.05" d="M149.31 173.783C149.31 173.783 149.507 177.492 150.052 177.687C150.305 177.06 150.459 176.472 150.214 176.386C149.668 176.192 149.471 172.482 149.471 172.482C149.471 172.482 148.226 168.116 148.461 166.926C148.696 165.737 147.451 162.926 147.451 162.926L146.946 159.555C144.883 156.294 145.517 153.201 145.517 153.201L145.315 147.986C145.315 147.986 143.421 137.935 143.009 132.834C142.757 129.568 142.613 125.101 142.552 122.313C142.552 121.808 142.532 121.363 142.524 120.987L142.34 121.012C142.34 121.012 142.34 122.048 142.385 123.614C142.448 126.391 142.58 130.866 142.845 134.132C143.257 139.233 145.151 149.284 145.151 149.284L145.335 154.496C145.335 154.496 144.701 157.59 146.764 160.85L147.269 164.224C147.269 164.224 148.509 167.03 148.28 168.222C148.05 169.414 149.31 173.783 149.31 173.783Z" fill="black"/>
<path opacity="0.05" d="M168.924 185.306C168.365 184.563 167.98 183.704 167.796 182.793C167.154 183.417 168.008 185.712 168.758 186.606C169.548 187.546 175.162 187.922 176.17 186.101L176.129 185.076C174.733 186.579 169.669 186.195 168.924 185.306Z" fill="black"/>
<path opacity="0.05" d="M176.862 178.917C176.586 179.443 176.355 179.992 176.172 180.558L176.2 181.316C176.311 181.035 176.473 180.662 176.705 180.217C176.859 179.788 176.922 179.331 176.889 178.876C176.874 178.891 176.869 178.904 176.862 178.917Z" fill="black"/>
<path opacity="0.05" d="M169.053 180.066C169.241 179.644 169.401 179.21 169.533 178.768C169.533 178.768 168.626 179.02 167.109 177.353C166.005 176.141 165.846 173.78 165.944 172.229C165.71 173.154 165.427 176.987 166.955 178.652C167.937 179.74 168.667 180.01 169.053 180.066Z" fill="black"/>
<path opacity="0.05" d="M165.79 168.25C165.925 169.305 166.001 170.367 166.02 171.431C166.04 171.261 166.07 171.093 166.111 170.926C166.346 170.002 165.955 166.949 165.955 166.949C165.955 166.949 165.927 164.795 165.47 164.113C165.013 163.431 163.954 159.486 163.954 159.486C163.954 159.486 163.904 158.143 163.124 157.466C162.343 156.789 161.75 154.08 161.75 154.08C161.282 153.412 161.061 152.602 161.124 151.789C161.232 150.438 160.113 149.029 160.113 149.029L158.045 143.284L156.156 138.991L155.285 141.566C155.285 141.566 155.285 141.885 155.285 142.385L155.992 140.301L157.881 144.594L159.934 150.332C159.934 150.332 161.065 151.744 160.944 153.092C160.882 153.906 161.103 154.716 161.571 155.385C161.571 155.385 162.161 158.108 162.939 158.779C163.717 159.451 163.773 160.8 163.773 160.8C163.773 160.8 164.838 164.744 165.288 165.426C165.737 166.108 165.79 168.25 165.79 168.25Z" fill="black"/>
</g>
<path d="M166.498 69.1464L166.169 71.1263L166.227 71.9975L166.268 72.6415L164.035 72.9597L163.765 72.5051C163.26 71.6819 162.237 70.0075 161.917 69.755C161.487 69.4242 160.538 63.9946 161.439 64.2825C161.989 64.4719 162.45 64.8577 162.732 65.3659C162.732 65.3659 167.159 65.7018 166.498 69.1464Z" fill="#FFCDD3"/>
<path opacity="0.1" d="M166.268 72.6414L164.035 72.9596L163.765 72.5051C164.054 72.1493 164.457 71.9045 164.906 71.8124C165.355 71.7203 165.822 71.7866 166.227 72L166.268 72.6414Z" fill="black"/>
<path d="M166.876 73.6845L163.944 74.4825L163.864 74.0456L163.651 72.8663C163.651 72.8663 164.763 71.2601 166.5 72.3612L166.672 72.9597L166.876 73.6845Z" fill="#DCE6F2"/>
<path d="M118.783 71.197L115.692 73.0152C115.692 73.0152 115.561 72.7627 115.382 72.4293C115.058 71.8106 114.573 70.8788 114.437 70.5454C114.23 70.0403 112.887 69.4191 112.887 69.4191C109.46 66.3887 113.293 63.5224 113.293 63.5224C115.215 59.2469 117.758 64.785 117.758 64.785C117.758 64.785 118.192 67.7321 117.973 67.9418C117.753 68.1514 117.783 68.9519 117.783 68.9519C118.108 69.5172 118.386 70.1085 118.614 70.7197C118.725 71.0151 118.783 71.197 118.783 71.197Z" fill="#FFCDD3"/>
<path opacity="0.1" d="M118.783 71.1969L115.692 73.0152C115.692 73.0152 115.561 72.7627 115.382 72.4293C115.813 72.0404 117.344 70.6969 117.867 70.7348C118.119 70.7587 118.372 70.7587 118.624 70.7348C118.725 71.0151 118.783 71.1969 118.783 71.1969Z" fill="black"/>
<path d="M119.142 72.1415L115.662 74.0254L115.561 73.2678L115.49 72.7426C115.49 72.7426 117.48 70.9016 118.089 70.9445C118.398 70.9762 118.71 70.9635 119.016 70.9066L119.081 71.5455L119.142 72.1415Z" fill="#DCE6F2"/>
<path d="M158.396 82.5182C158.396 82.5182 142.991 84.8593 145.845 83.8087C147.833 83.0763 148.585 81.7657 148.696 80.3388C148.787 79.1443 148.444 77.869 147.984 76.7806C147.581 75.8182 147.081 74.8993 146.492 74.0381C146.492 74.0381 158.07 67.0756 155.941 73.0784C155.61 73.9868 155.42 74.9407 155.378 75.9068C155.342 76.866 155.481 77.8238 155.79 78.7327C156.292 80.2111 157.194 81.5213 158.396 82.5182Z" fill="#FFCDD3"/>
<path opacity="0.1" d="M155.942 73.0784C155.61 73.9867 155.42 74.9407 155.378 75.9068C154.3 76.8866 153.075 76.8715 151.507 76.9321C150.3 76.9775 148.982 77.321 147.992 76.778C147.588 75.8156 147.088 74.8967 146.499 74.0355C146.499 74.0355 158.07 67.0755 155.942 73.0784Z" fill="black"/>
<path d="M151.057 77.3564C154.594 77.3564 157.462 74.4891 157.462 70.9521C157.462 67.415 154.594 64.5477 151.057 64.5477C147.52 64.5477 144.653 67.415 144.653 70.9521C144.653 74.4891 147.52 77.3564 151.057 77.3564Z" fill="#FFCDD3"/>
<path opacity="0.1" d="M158.396 82.5182C158.396 82.5182 142.991 84.8592 145.845 83.8086C147.833 83.0763 148.585 81.7656 148.696 80.3388C149.436 79.4751 150.969 78.8235 151.941 78.4548C152.837 78.1157 153.817 78.0619 154.744 78.3008C155.11 78.3942 155.459 78.5405 155.782 78.7352C156.287 80.2135 157.192 81.5229 158.396 82.5182Z" fill="black"/>
<path opacity="0.1" d="M166.876 73.6845L163.944 74.4825L163.864 74.0456C164.163 73.5981 164.594 73.254 165.096 73.0602C165.599 72.8663 166.149 72.8321 166.672 72.9622L166.876 73.6845Z" fill="black"/>
<path opacity="0.1" d="M119.142 72.1414L115.662 74.0253L115.561 73.2677C116.801 72.4697 118.899 71.6186 119.081 71.5454L119.142 72.1414Z" fill="black"/>
<path opacity="0.1" d="M166.018 121.275C160.063 122.452 151.58 124.013 150.211 123.651C149.075 123.353 145.492 123.528 142.383 123.755C142.347 122.189 142.335 121.154 142.335 121.154L165.472 117.841C165.472 117.841 165.482 118.914 166.018 121.275Z" fill="black"/>
<path d="M171.942 119.639C171.942 119.639 152.338 123.785 150.194 123.222C148.05 122.659 137.206 123.775 137.206 123.775C132.438 127.243 134.297 122.326 134.297 122.326C134.297 122.326 133.769 119.815 134.281 117.75C134.619 116.236 134.83 114.697 134.913 113.148C134.913 113.148 134.68 109.926 135.244 109.151C135.807 108.375 136.297 102.971 136.297 102.971C136.297 102.971 136.693 99.2917 136.61 98.4887C136.527 97.6856 136.653 95.4178 136.653 95.4178L137.206 91.6298C133.165 91.2459 120.604 84.19 120.604 84.19C119.915 81.6849 115.116 75.9472 115.116 75.9472C115.032 75.4524 114.887 74.9698 114.685 74.5103C114.329 73.6618 119.101 71.7551 119.101 71.7551C119.101 71.7551 122.874 76.0255 123.672 77.1796C124.47 78.3337 127.137 80.4373 127.137 80.4373C127.537 80.3837 127.944 80.4217 128.327 80.5485C128.348 80.5523 128.369 80.5582 128.39 80.5661C129.268 80.8757 130.098 81.3103 130.852 81.8566C132.781 81.6748 134.178 82.9678 134.178 82.9678C134.178 82.9678 136.37 82.5612 136.761 82.9223C137.153 83.2834 139.019 82.8364 139.019 82.8364C139.019 82.8364 140.749 78.7832 142.029 79.8919C143.31 81.0005 148.557 80.7454 148.557 80.7454C149.222 79.7883 150.896 79.056 151.946 78.6721C152.843 78.333 153.822 78.2792 154.75 78.5181C155.152 78.6206 155.534 78.7914 155.878 79.0231L159.182 82.0182C159.182 82.0182 160.05 80.801 159.939 80.5358C159.828 80.2707 160.997 80.0106 160.997 80.0106C160.997 80.0106 162.538 79.4651 163.124 79.2833C163.71 79.1014 164.275 79.7176 164.323 79.7732C164.303 79.705 163.849 78.4196 163.967 77.4195C164.086 76.4195 163.247 75.5078 163.247 75.5078C164.952 70.8106 169.349 74.5204 169.349 74.5204C169.349 74.5204 169.93 77.0281 169.536 78.013C169.142 78.9979 170.081 81.0081 169.995 81.5485C169.909 82.0889 170.265 82.993 170.306 84.0133C170.346 85.0335 169.877 86.9679 169.579 87.8493C169.281 88.7306 166.801 90.756 166.801 90.756C166.801 90.756 166.758 93.8268 165.697 95.6426C164.636 97.4583 165.568 103.512 165.568 103.512C165.568 103.512 166.831 108.201 168.227 109.656C169.624 111.11 171.942 119.639 171.942 119.639Z" fill="#656691"/>
<path opacity="0.1" d="M141.812 85.3643C141.812 85.3643 141.153 83.6117 140.608 83.4728C140.065 83.2954 139.535 83.082 139.022 82.8339L139.342 82.1571C139.342 82.1571 141.385 82.6344 141.729 83.2127C142.072 83.791 141.812 85.3643 141.812 85.3643Z" fill="black"/>
<path opacity="0.1" d="M130.854 81.854C130.766 82.397 126.001 83.0637 126.001 83.0637L128.327 80.5383L128.387 80.5585C129.268 80.8692 130.099 81.3056 130.854 81.854Z" fill="black"/>
<path d="M116.723 75.4371C116.96 75.4371 117.152 75.2449 117.152 75.0078C117.152 74.7707 116.96 74.5785 116.723 74.5785C116.485 74.5785 116.293 74.7707 116.293 75.0078C116.293 75.2449 116.485 75.4371 116.723 75.4371Z" fill="#575988"/>
<path d="M117.306 76.2755C117.543 76.2755 117.735 76.0833 117.735 75.8462C117.735 75.6091 117.543 75.4169 117.306 75.4169C117.069 75.4169 116.877 75.6091 116.877 75.8462C116.877 76.0833 117.069 76.2755 117.306 76.2755Z" fill="#575988"/>
<path d="M117.874 77.0482C118.111 77.0482 118.303 76.856 118.303 76.6189C118.303 76.3818 118.111 76.1896 117.874 76.1896C117.637 76.1896 117.445 76.3818 117.445 76.6189C117.445 76.856 117.637 77.0482 117.874 77.0482Z" fill="#575988"/>
<path d="M118.473 77.8867C118.71 77.8867 118.902 77.6945 118.902 77.4574C118.902 77.2203 118.71 77.0281 118.473 77.0281C118.236 77.0281 118.043 77.2203 118.043 77.4574C118.043 77.6945 118.236 77.8867 118.473 77.8867Z" fill="#575988"/>
<path d="M169.157 75.8108C169.351 75.8108 169.508 75.6537 169.508 75.4598C169.508 75.2659 169.351 75.1088 169.157 75.1088C168.963 75.1088 168.806 75.2659 168.806 75.4598C168.806 75.6537 168.963 75.8108 169.157 75.8108Z" fill="#575988"/>
<path d="M169.24 76.6012C169.434 76.6012 169.591 76.4441 169.591 76.2502C169.591 76.0563 169.434 75.8992 169.24 75.8992C169.046 75.8992 168.889 76.0563 168.889 76.2502C168.889 76.4441 169.046 76.6012 169.24 76.6012Z" fill="#575988"/>
<path d="M169.318 77.3917C169.512 77.3917 169.669 77.2346 169.669 77.0407C169.669 76.8469 169.512 76.6897 169.318 76.6897C169.125 76.6897 168.967 76.8469 168.967 77.0407C168.967 77.2346 169.125 77.3917 169.318 77.3917Z" fill="#575988"/>
<path opacity="0.1" d="M142.4 99.9356C142.347 99.8725 155.058 114.714 164.119 105.507C164.129 105.507 149.338 108.095 142.4 99.9356Z" fill="black"/>
<path opacity="0.1" d="M135.739 108.161C135.739 108.161 142.999 108.08 143.838 110.136L143.921 112.307C143.719 112.431 143.49 112.5 143.253 112.51C143.017 112.519 142.783 112.468 142.572 112.361C141.815 111.992 137.355 109.934 135.85 111.065L135.739 108.161Z" fill="black"/>
<path d="M135.877 108.156C135.877 108.156 142.822 108.077 143.623 110.04L143.704 112.108C143.51 112.225 143.291 112.291 143.065 112.3C142.839 112.309 142.615 112.26 142.413 112.158C141.698 111.81 137.423 109.845 135.984 110.926L135.877 108.156Z" fill="#656691"/>
<path opacity="0.1" d="M139.095 92.2712C139.903 93.9571 140.91 95.54 142.095 96.9861C143.385 98.5877 144.928 99.9678 146.663 101.072C146.663 101.072 139.256 93.2511 139.095 92.2712Z" fill="black"/>
<path opacity="0.1" d="M136.398 83.9222C136.398 83.9222 137.809 89.0992 140.996 90.7534L136.398 83.9222Z" fill="black"/>
<path opacity="0.1" d="M134.564 84.5209C134.529 84.4249 133.648 88.6928 138.832 90.8343C138.832 90.8368 136.64 90.1853 134.564 84.5209Z" fill="black"/>
<path opacity="0.1" d="M166.101 79.7984C166.02 79.7984 168.679 81.354 169.412 82.0939C169.412 82.0939 167.629 79.6443 166.101 79.7984Z" fill="black"/>
<path d="M149.552 76.821C149.656 77.1467 149.782 77.5028 150.085 77.6644C150.276 77.7498 150.485 77.7879 150.694 77.7756C152.648 77.8235 154.681 77.8311 156.457 77.018C156.789 76.8855 157.084 76.673 157.315 76.3992C157.621 75.9952 157.661 75.4598 157.772 74.9648C157.987 74.0001 158.495 73.1264 158.848 72.2021C159.443 70.639 159.597 68.9424 159.293 67.2978C159.224 66.7923 159.038 66.3098 158.75 65.8887C158.204 65.1689 157.25 64.9063 156.543 64.3457C155.835 63.785 155.361 62.9011 154.545 62.4895C153.81 62.1183 152.931 62.1991 152.126 62.3683C150.539 62.7023 149.031 63.3376 147.684 64.2396C147.232 64.5401 146.737 64.8886 146.199 64.8078C145.726 64.7396 145.373 64.3583 145.057 64.0022C144.71 64.8942 144.583 65.8564 144.686 66.8079C144.71 66.9474 144.71 67.0901 144.686 67.2296C144.626 67.3992 144.53 67.5541 144.406 67.6842C143.946 68.2625 143.678 69.1565 144.176 69.7045C144.393 69.9419 144.716 70.0631 144.933 70.3055C145.312 70.7424 145.216 71.394 145.229 71.9697C145.216 72.1701 145.274 72.3687 145.393 72.5304C145.501 72.6229 145.631 72.6861 145.77 72.714C145.909 72.7418 146.053 72.7334 146.189 72.6895C146.458 72.5961 146.743 72.5575 147.027 72.5758C147.333 72.662 147.601 72.851 147.785 73.1112C148.721 74.2097 149.123 75.4548 149.552 76.821Z" fill="#2D293D"/>
<g opacity="0.1">
<path opacity="0.1" d="M157.51 75.8916C157.28 76.1646 156.986 76.3763 156.654 76.5078C154.886 77.3286 152.845 77.321 150.888 77.2654C150.68 77.2761 150.471 77.2381 150.28 77.1543C149.979 76.9927 149.85 76.6341 149.747 76.3083C149.317 74.9446 148.916 73.6971 147.979 72.5859C147.794 72.3274 147.527 72.1395 147.221 72.0531C146.937 72.035 146.653 72.0728 146.383 72.1642C146.248 72.2084 146.103 72.2173 145.964 72.1899C145.824 72.1624 145.694 72.0997 145.585 72.0076C145.467 71.8444 145.409 71.6455 145.421 71.4445C145.408 70.8687 145.504 70.2171 145.128 69.7828C144.916 69.5302 144.593 69.4191 144.37 69.1792C144.23 69.0013 144.139 68.7887 144.109 68.5639C144.079 68.339 144.11 68.1101 144.199 67.9014C143.878 68.4569 143.757 69.164 144.173 69.6186C144.388 69.856 144.714 69.9772 144.931 70.2222C145.31 70.6565 145.214 71.3081 145.226 71.8839C145.213 72.0843 145.271 72.2828 145.391 72.4445C145.498 72.537 145.628 72.6002 145.767 72.6281C145.907 72.656 146.051 72.6475 146.186 72.6036C146.455 72.5115 146.74 72.4729 147.024 72.49C147.331 72.5761 147.599 72.7652 147.782 73.0253C148.729 74.1365 149.128 75.3815 149.55 76.7477C149.653 77.0735 149.78 77.4296 150.083 77.5937C150.274 77.678 150.483 77.716 150.691 77.7049C152.646 77.7503 154.679 77.7579 156.454 76.9472C156.786 76.8148 157.081 76.6032 157.313 76.331C157.426 76.1695 157.511 75.9903 157.565 75.8007C157.55 75.831 157.533 75.8563 157.51 75.8916Z" fill="black"/>
<path opacity="0.1" d="M144.701 67.0452C144.784 66.9489 144.846 66.8362 144.883 66.7144C144.908 66.5758 144.908 66.4338 144.883 66.2952C144.798 65.5137 144.869 64.723 145.093 63.9693L145.055 63.9264C144.708 64.8184 144.581 65.7806 144.683 66.7321C144.699 66.8357 144.705 66.9405 144.701 67.0452Z" fill="black"/>
</g>
<path opacity="0.1" d="M148.56 80.7429C148.56 80.7429 156.593 81.5005 157.267 80.2656L148.56 80.7429Z" fill="black"/>
<path opacity="0.1" d="M163.972 76.8362C163.972 76.8362 168.414 76.672 169.455 78.2984L163.972 76.8362Z" fill="black"/>
<path d="M261.1 161.214C261.1 161.214 262.598 163.171 260.408 166.128C258.219 169.085 256.416 171.58 257.146 173.424C257.146 173.424 260.449 167.934 263.136 167.855C265.823 167.777 264.058 164.512 261.1 161.214Z" fill="#4796BD"/>
<path opacity="0.1" d="M261.1 161.214C261.232 161.402 261.335 161.609 261.406 161.827C264.03 164.908 265.426 167.785 262.906 167.855C260.557 167.924 257.739 172.123 257.065 173.181C257.087 173.267 257.114 173.351 257.146 173.434C257.146 173.434 260.449 167.944 263.136 167.866C265.823 167.787 264.058 164.512 261.1 161.214Z" fill="black"/>
<path d="M263.886 163.706C263.886 164.396 263.808 164.954 263.712 164.954C263.616 164.954 263.54 164.396 263.54 163.706C263.54 163.017 263.636 163.343 263.732 163.343C263.828 163.343 263.886 163.017 263.886 163.706Z" fill="#FFD037"/>
<path d="M264.84 164.53C264.234 164.858 263.707 165.057 263.661 164.974C263.616 164.891 264.07 164.555 264.671 164.216C265.272 163.878 265.037 164.125 265.085 164.216C265.133 164.307 265.444 164.199 264.84 164.53Z" fill="#FFD037"/>
<path d="M253.191 161.214C253.191 161.214 251.693 163.171 253.88 166.128C256.067 169.085 257.875 171.58 257.146 173.424C257.146 173.424 253.842 167.934 251.155 167.855C248.468 167.777 250.234 164.512 253.191 161.214Z" fill="#4796BD"/>
<path opacity="0.1" d="M253.191 161.214C253.059 161.402 252.956 161.609 252.885 161.827C250.261 164.908 248.865 167.785 251.385 167.855C253.734 167.924 256.55 172.123 257.226 173.181C257.204 173.267 257.177 173.351 257.146 173.434C257.146 173.434 253.842 167.944 251.155 167.866C248.468 167.787 250.234 164.512 253.191 161.214Z" fill="black"/>
<path d="M250.406 163.706C250.406 164.396 250.484 164.954 250.58 164.954C250.676 164.954 250.751 164.396 250.751 163.706C250.751 163.017 250.656 163.343 250.56 163.343C250.464 163.343 250.406 163.017 250.406 163.706Z" fill="#FFD037"/>
<path d="M249.451 164.53C250.057 164.858 250.585 165.057 250.63 164.974C250.676 164.891 250.221 164.555 249.62 164.216C249.019 163.878 249.251 164.125 249.206 164.216C249.16 164.307 248.845 164.199 249.451 164.53Z" fill="#FFD037"/>
<path opacity="0.1" d="M257.143 188.402C265.79 188.402 272.8 187.327 272.8 186C272.8 184.674 265.79 183.599 257.143 183.599C248.496 183.599 241.486 184.674 241.486 186C241.486 187.327 248.496 188.402 257.143 188.402Z" fill="#4796BD"/>
<path d="M265.204 170.782L265.128 171.393L265.025 172.257L264.982 172.618L264.876 173.482L264.83 173.843L264.724 174.704L263.527 184.528C263.419 185.404 261.987 186.089 260.26 186.089H254.032C252.302 186.089 250.873 185.404 250.767 184.528L249.565 174.704L249.461 173.843L249.418 173.482L249.31 172.618L249.267 172.257L249.161 171.393L249.087 170.782C249.027 170.277 249.802 169.868 250.779 169.868H263.522C264.49 169.868 265.267 170.285 265.204 170.782Z" fill="#65617D"/>
<path d="M265.128 171.393L265.022 172.257H249.264L249.16 171.393H265.128Z" fill="#9D9CB5"/>
<path d="M264.979 172.616L264.876 173.482H249.415L249.309 172.616H264.979Z" fill="#9D9CB5"/>
<path d="M264.828 173.841L264.724 174.704H249.564L249.458 173.841H264.828Z" fill="#9D9CB5"/>
<defs>
<linearGradient id="paint0_linear_9_2" x1="154.002" y1="170.219" x2="154.002" y2="34.271" gradientUnits="userSpaceOnUse">
<stop stop-color="#808080" stop-opacity="0.25"/>
<stop offset="0.54" stop-color="#808080" stop-opacity="0.12"/>
<stop offset="1" stop-color="#808080" stop-opacity="0.1"/>
</linearGradient>
<linearGradient id="paint1_linear_9_2" x1="47168.7" y1="106696" x2="44451.8" y2="35972.6" gradientUnits="userSpaceOnUse">
<stop stop-color="#808080" stop-opacity="0.25"/>
<stop offset="0.54" stop-color="#808080" stop-opacity="0.12"/>
<stop offset="1" stop-color="#808080" stop-opacity="0.1"/>
</linearGradient>
</defs>
</svg>
